<svg xmlns="http://www.w3.org/2000/svg" xmlns:xlink="http://www.w3.org/1999/xlink" viewBox="0 0 203.48 216.56"><defs><style>.cls-1{fill:url(#Degradado_sin_nombre_6);}.cls-2{fill:url(#Degradado_sin_nombre_7);}.cls-3{fill:url(#Degradado_sin_nombre_3);}.cls-4{fill:url(#Degradado_sin_nombre_9);}</style><linearGradient id="Degradado_sin_nombre_6" x1="255.39" y1="77.14" x2="-30.68" y2="47.7" gradientUnits="userSpaceOnUse"><stop offset="0.05" stop-color="#01012f"/><stop offset="0.58" stop-color="#010162"/><stop offset="0.96" stop-color="#01012f"/></linearGradient><linearGradient id="Degradado_sin_nombre_7" y1="147.04" x2="203.48" y2="147.04" gradientUnits="userSpaceOnUse"><stop offset="0.13" stop-color="#01012f"/><stop offset="0.36" stop-color="#010187"/><stop offset="0.89" stop-color="#01012f"/></linearGradient><linearGradient id="Degradado_sin_nombre_3" x1="151.07" y1="92.81" x2="118.89" y2="133.52" gradientUnits="userSpaceOnUse"><stop offset="0.04" stop-color="#130094"/><stop offset="0.32" stop-color="#0b0094"/><stop offset="1" stop-color="blue"/></linearGradient><linearGradient id="Degradado_sin_nombre_9" x1="161.33" y1="166.64" x2="143.57" y2="226.79" gradientUnits="userSpaceOnUse"><stop offset="0.04" stop-color="#020094"/><stop offset="0.32" stop-color="#0300d4"/><stop offset="0.93" stop-color="#4ce5ae"/></linearGradient></defs><g id="Capa_2" data-name="Capa 2"><g id="Capa_1-2" data-name="Capa 1"><path class="cls-1" d="M166,119.86c14.6-6.28,27.3-17.26,29.18-28.8,3.36-20.54-13-36-33.79-43.13-24.88-8.51-8.28-2.41-103.45-22.63C12.19,15.59,9.27,6.53,10.29,0-2.07,6.53-5.86,42.09,15.56,52.79c22,11,65.9,13.28,121,25.92C185.07,89.82,177.9,110.29,166,119.86Z"/><path class="cls-2" d="M175.8,125.89A74.62,74.62,0,0,0,162.1,121c-69-12.75-75-12.48-97.9-17C1.85,91.77,9.34,81.58,7.75,77.52c-11.5,9.89-11.69,40.81,9.62,50.09,25.85,11.25,71.33,14.93,129,26.51,18.75,3.76,29.73,8.25,37.93,13.58,9.11,5.9,11.61,14.54,4.63,21.78-6.11,6.34-22.42,5.31-40.51,3.27-32.08-3.61-72.76-11.12-84.18-13.67C12.89,167.6,9.34,156.66,7.75,152.59c-11.5,9.89-11.69,40.82,9.62,50.1C34.27,210,50.31,214.27,85.07,216c25.46,1.23,71.71,2.39,94.36-16.6,2.21-1.84,19.83-12.61,23.47-31.16C206.29,151,194.56,134.87,175.8,125.89Z"/><path class="cls-3" d="M121.52,113.68h0c20.65,3.6,40.6,7.28,40.6,7.28l1,.28c1-.45,2-.91,2.9-1.4,11.89-9.56,19.06-30-29.41-41.14q-5-1.15-9.91-2.19C140.28,81,159.46,105,121.52,113.68Z"/><path class="cls-4" d="M134.24,188.77c-.92.59-1.88,1.14-2.86,1.66,5.79.91,11.52,1.71,17,2.32,18.09,2,34.4,3.07,40.51-3.27,7-7.24,4.48-15.88-4.63-21.78-15.07-9.78-34.59-13.09-54.44-16.77C144.33,156.25,156.5,174.29,134.24,188.77Z"/></g></g></svg>